# xmcd
#
# Track frame offsets:
#	150
#	12982
#	26533
#	40510
#	55074
#	68370
#	80586
#	91781
#	103755
#	118315
#	135128
#	148955
#	164372
#	179319
#	193806
#	206096
#	222381
#	233240
#
# Disc length: 3321 seconds
#
# Revision: 0
# Processed by: cddbd v1.5.2PL0 Copyright (c) Steve Scherf et al.
# Submitted via: EZCDAudioConverter 7.1.5.1
#
DISCID=f80cf712
DTITLE=Don Williams - Don Williams - The 30th Anniversary
DYEAR=2010
DGENRE=country
TTITLE0=You`re My Best Friend
TTITLE1=Reason To Be
TTITLE2=I’m Just A Country Boy
TTITLE3=Listen To the Radio
TTITLE4=I’m Getting Good At Missing You
TTITLE5=Nobody But You
TTITLE6=It Must Be Love
TTITLE7=The Ties That Bind
TTITLE8=Tears Of The Lonely
TTITLE9=I Sing For Joy
TTITLE10=She`s A Heart Full
TTITLE11=Don`t You Think It`s Time
TTITLE12=What`s the Score
TTITLE13=I Don`t Wanna Let You Go
TTITLE14=Some Broken Hearts Never Mend
TTITLE15=If I Needed You
TTITLE16=Turn out the Lights(and Love Me Tonight)
TTITLE17=The Rose
EXTD=
EXTT0=
EXTT1=
EXTT2=
EXTT3=
EXTT4=
EXTT5=
EXTT6=
EXTT7=
EXTT8=
EXTT9=
EXTT10=
EXTT11=
EXTT12=
EXTT13=
EXTT14=
EXTT15=
EXTT16=
EXTT17=
PLAYORDER=
